<svg xmlns="http://www.w3.org/2000/svg" width="31.251" height="29" viewBox="0 0 31.251 29">
  <g id="heart" transform="translate(1 1)">
    <path id="heart-2" data-name="heart" d="M18,31.5a2.25,2.25,0,0,1-1.266-.392c-5.526-3.751-7.919-6.323-9.238-7.931A16.3,16.3,0,0,1,3.375,12.419,7.931,7.931,0,0,1,11.185,4.5a8.554,8.554,0,0,1,6.5,3.2.422.422,0,0,0,.637,0,8.55,8.55,0,0,1,6.5-3.2,7.932,7.932,0,0,1,7.81,7.92A16.307,16.307,0,0,1,28.5,23.178c-1.32,1.608-3.712,4.18-9.238,7.931A2.25,2.25,0,0,1,18,31.5Z" transform="translate(-3.374 -4.5)" fill="none" stroke="#818181" stroke-width="2"/>
  </g>
</svg>
