<!--<svg xmlns="http://www.w3.org/2000/svg" width="18" height="15" viewBox="0 0 18 15">-->
<!--    <path id="Icon_awesome-tags" data-name="Icon awesome-tags" d="M14,6.619,8.045.412A1.323,1.323,0,0,0,7.091,0H1.35A1.379,1.379,0,0,0,0,1.406v5.98a1.437,1.437,0,0,0,.4.994l5.959,6.207a1.312,1.312,0,0,0,1.909,0L14,8.608a1.448,1.448,0,0,0,0-1.989ZM3.15,4.687A1.379,1.379,0,0,1,1.8,3.281,1.379,1.379,0,0,1,3.15,1.875,1.379,1.379,0,0,1,4.5,3.281,1.379,1.379,0,0,1,3.15,4.687ZM17.6,8.608l-5.741,5.98a1.312,1.312,0,0,1-1.909,0l-.01-.011,4.9-5.1a2.715,2.715,0,0,0,0-3.729L9.321,0h1.37a1.323,1.323,0,0,1,.955.412L17.6,6.619a1.448,1.448,0,0,1,0,1.989Z"/>-->
<!--</svg>-->
<svg xmlns="http://www.w3.org/2000/svg" width="18" height="15" viewBox="0 0 18 15">
    <path id="Icon_awesome-tags" data-name="Icon awesome-tags" d="M14,6.619,8.045.412A1.323,1.323,0,0,0,7.091,0H1.35A1.379,1.379,0,0,0,0,1.406v5.98a1.437,1.437,0,0,0,.4.994l5.959,6.207a1.312,1.312,0,0,0,1.909,0L14,8.608a1.448,1.448,0,0,0,0-1.989ZM3.15,4.687A1.379,1.379,0,0,1,1.8,3.281,1.379,1.379,0,0,1,3.15,1.875,1.379,1.379,0,0,1,4.5,3.281,1.379,1.379,0,0,1,3.15,4.687ZM17.6,8.608l-5.741,5.98a1.312,1.312,0,0,1-1.909,0l-.01-.011,4.9-5.1a2.715,2.715,0,0,0,0-3.729L9.321,0h1.37a1.323,1.323,0,0,1,.955.412L17.6,6.619a1.448,1.448,0,0,1,0,1.989Z" fill="#919191"/>
</svg>


