<svg xmlns="http://www.w3.org/2000/svg" width="19" height="14.342" viewBox="0 0 20.395 14.342">
  <g id="menu" transform="translate(-3 -7.5)">
    <path id="패스_4" data-name="패스 4" d="M3,8.52A1.02,1.02,0,0,1,4.02,7.5H22.375a1.02,1.02,0,1,1,0,2.04H4.02A1.02,1.02,0,0,1,3,8.52Z"/>
    <path id="패스_5" data-name="패스 5" d="M3,17.568a1.02,1.02,0,0,1,1.02-1.02H22.375a1.02,1.02,0,1,1,0,2.04H4.02A1.02,1.02,0,0,1,3,17.568Z" transform="translate(0 -2.897)"/>
    <path id="패스_6" data-name="패스 6" d="M4.02,25.6a1.02,1.02,0,0,0,0,2.04H22.375a1.02,1.02,0,1,0,0-2.04Z" transform="translate(0 -5.794)"/>
  </g>
</svg>
