<svg xmlns="http://www.w3.org/2000/svg" width="35.801" height="33.552" viewBox="0 0 35.801 33.552">
  <g id="star" transform="translate(1.027 1)">
    <path id="star-2" data-name="star" d="M27.7,33.75a1.125,1.125,0,0,1-.66-.211L18,26.983,8.957,33.539a1.125,1.125,0,0,1-1.726-1.271l3.527-10.447L1.617,15.553A1.125,1.125,0,0,1,2.25,13.5H13.527l3.4-10.473a1.125,1.125,0,0,1,2.14,0l3.4,10.477H33.75a1.125,1.125,0,0,1,.636,2.053l-9.144,6.264,3.525,10.444A1.125,1.125,0,0,1,27.7,33.75Z" transform="translate(-1.128 -2.249)" fill="none" stroke="#5a5959" stroke-width="2"/>
  </g>
</svg>
